<?xml version="1.0" encoding="utf-8"?>
<!-- Generator: Adobe Illustrator 23.0.3, SVG Export Plug-In . SVG Version: 6.00 Build 0)  -->
<svg version="1.1" id="图层_1" xmlns="http://www.w3.org/2000/svg" xmlns:xlink="http://www.w3.org/1999/xlink" x="0px" y="0px"
	 viewBox="0 0 36 36" style="enable-background:new 0 0 36 36;" xml:space="preserve">
<style type="text/css">
	.st0{fill:#FFE7C5;}
	.st1{fill:#FFCE94;}
	.st2{fill:#3D3C3B;}
	.st3{fill:#FFFFFF;}
</style>
<rect x="4" y="10" class="st0" width="28" height="26"/>
<rect x="32" y="10" class="st1" width="4" height="9"/>
<rect y="10" class="st1" width="4" height="9"/>
<path class="st1" d="M4,23c-1.33-1.33-2.67-2.67-4-4h4V23z"/>
<path class="st1" d="M32,23c1.33-1.33,2.67-2.67,4-4h-4V23z"/>
<rect x="0" y="0" class="st2" width="36" height="10"/>
<rect x="8" y="10" class="st2" width="20" height="4"/>
<path class="st2" d="M28,14v-4h4C30.67,11.33,29.33,12.67,28,14z"/>
<path class="st2" d="M8,14v-4H4C5.33,11.33,6.67,12.67,8,14z"/>
<rect x="16" y="18" class="st3" width="4" height="12"/>
</svg>
